<?xml version="1.0" encoding="UTF-8" standalone="no"?>
<svg
   xmlns:dc="http://purl.org/dc/elements/1.1/"
   xmlns:cc="http://creativecommons.org/ns#"
   xmlns:rdf="http://www.w3.org/1999/02/22-rdf-syntax-ns#"
   xmlns:svg="http://www.w3.org/2000/svg"
   xmlns="http://www.w3.org/2000/svg"
   viewBox="0 0 418.45334 516.50665"
   height="516.50665"
   width="418.45334"
   xml:space="preserve"
   id="svg2"
   version="1.1"><metadata
     id="metadata8"><rdf:RDF><cc:Work
         rdf:about=""><dc:format>image/svg+xml</dc:format><dc:type
           rdf:resource="http://purl.org/dc/dcmitype/StillImage" /></cc:Work></rdf:RDF></metadata><defs
     id="defs6" /><g
     transform="matrix(1.3333333,0,0,-1.3333333,0,516.50667)"
     id="g10"><g
       transform="scale(0.1)"
       id="g12"><path
         id="path14"
         style="fill:#100f0d;fill-opacity:1;fill-rule:nonzero;stroke:none"
         d="m 1569.04,0 -69.08,41.2617 c -3.12,1.7266 -6.18,3.5469 -9.16,5.4766 C 1045.41,312.828 692.973,669.281 443.266,1106.23 243.84,1455.2 109.828,1855.14 44.9531,2294.93 -64.8086,3038.94 60.2813,3635.77 65.6602,3660.81 l 45.7348,213.01 178.742,-125.58 c 2.476,-1.75 251.203,-173.85 581.843,-173.85 421.78,0 578.07,155.85 587.32,165.51 l 109.88,131.59 107.33,-128.54 c 1.17,-1.3 2.33,-2.64 3.47,-3.99 15.88,-16.01 174.61,-164.57 586.41,-164.57 330.65,0 579.37,172.1 581.84,173.85 l 178.26,125.25 46.21,-212.68 c 5.39,-25.04 130.48,-621.87 20.71,-1365.88 C 3028.54,1855.14 2894.52,1455.2 2695.09,1106.23 2445.4,669.281 2092.95,312.828 1647.54,46.7188 c -3.02,-1.9688 -6.15,-3.8282 -9.35,-5.5704 L 1569.04,0 v 0" /><path
         id="path16"
         style="fill:#fbbd0d;fill-opacity:1;fill-rule:nonzero;stroke:none"
         d="m 1569.05,100.719 -26.99,16.191 c -1.67,0.899 -3.27,1.879 -4.83,2.899 C 1103.78,378.328 761.039,724.629 518.418,1149.16 324.371,1488.74 193.879,1878.49 130.59,2307.58 23.082,3036.26 145.039,3618.23 150.281,3642.63 l 18.407,85.66 71.492,-50.76 c 2.679,-1.89 271.414,-189.69 631.8,-189.69 481.8,0 651.28,193.62 652.93,195.58 l 44.05,52.02 41.88,-48.96 c 1.35,-1.43 2.64,-2.9 3.85,-4.44 16.19,-17.49 191.43,-194.2 651.69,-194.2 360.4,0 629.13,187.8 631.81,189.69 l 71.42,50.7 18.48,-85.6 c 5.24,-24.4 127.21,-606.37 19.71,-1335.05 C 2944.5,1878.49 2813.99,1488.74 2619.95,1149.16 2377.39,724.711 2034.69,378.461 1601.34,119.918 c -1.75,-1.168 -3.56,-2.219 -5.41,-3.199 l -26.88,-16 v 0" /><path
         id="path18"
         style="fill:#100f0d;fill-opacity:1;fill-rule:nonzero;stroke:none"
         d="m 1569.05,3646.55 c 0,0 176.33,-216.42 697.33,-216.42 384.74,0 665.28,200.39 665.28,200.39 0,0 504.97,-2351.18 -1362.61,-3462.641 h 0.27 C -298.258,1279.34 206.715,3630.52 206.715,3630.52 c 0,0 280.535,-200.39 665.273,-200.39 521.002,0 697.332,216.42 697.332,216.42 h -0.27" /><path
         id="path20"
         style="fill:#fbbd0d;fill-opacity:1;fill-rule:nonzero;stroke:none"
         d="M 1569.32,3421.85 1856,2539.57 h 927.69 L 2033.17,1994.29 2319.85,1112 1569.32,1657.29 818.816,1112 l 286.664,882.29 -750.5,545.28 h 927.68 l 286.66,882.28" /><path
         id="path22"
         style="fill:#fbbd0d;fill-opacity:1;fill-rule:nonzero;stroke:none"
         d="m 2200.83,1875.55 c 76.72,86.19 121.93,189.73 121.94,301.52 -0.01,108.59 -42.69,209.42 -115.48,294.11 l 0.43,0.19 -13.08,14.07 c -27.35,29.75 -58.49,57.36 -92.88,82.43 -0.68,0.51 -1.42,0.97 -2.11,1.48 -6.75,4.89 -13.67,9.67 -20.66,14.37 -2.19,1.46 -4.37,2.91 -6.56,4.35 -7.23,4.74 -14.55,9.4 -22.03,13.93 -1.82,1.1 -3.67,2.17 -5.49,3.26 -7.15,4.25 -14.4,8.42 -21.77,12.48 -1.25,0.69 -2.47,1.4 -3.73,2.09 -8.08,4.39 -16.3,8.62 -24.6,12.77 -2.16,1.07 -4.3,2.16 -6.48,3.22 -8.1,3.96 -16.31,7.8 -24.65,11.54 -2.33,1.04 -4.69,2.07 -7.03,3.09 -8.5,3.72 -17.06,7.34 -25.77,10.82 -1.79,0.71 -3.63,1.38 -5.44,2.09 -7.64,2.99 -15.4,5.88 -23.21,8.68 -2.42,0.87 -4.84,1.77 -7.28,2.61 -8.56,2.99 -17.22,5.83 -25.96,8.57 -3.06,0.97 -6.12,1.91 -9.21,2.85 -8.63,2.61 -17.33,5.13 -26.12,7.52 -3.05,0.83 -6.14,1.6 -9.2,2.4 -7.54,1.96 -15.12,3.83 -22.77,5.62 -3.52,0.82 -7.04,1.64 -10.59,2.42 -8.02,1.78 -16.1,3.44 -24.23,5.02 -3.49,0.68 -6.98,1.37 -10.51,2.02 -8.95,1.64 -17.97,3.15 -27.05,4.55 -3.6,0.56 -7.22,1.08 -10.85,1.59 -9.29,1.34 -18.63,2.58 -28.04,3.66 -2.92,0.33 -5.84,0.6 -8.75,0.9 -8.25,0.87 -16.56,1.64 -24.91,2.31 -2.9,0.23 -5.78,0.51 -8.7,0.71 -7.65,0.55 -15.34,1.03 -23.06,1.41 -1.02,0.02 -2.03,0.02 -3.05,0.04 -15.62,0.72 -31.32,1.21 -47.18,1.21 -0.04,0 -0.07,0.01 -0.11,0.01 -0.03,0 -0.07,-0.01 -0.08,-0.01 -14.19,0 -28.27,-0.36 -42.26,-0.93 -0.3,0 -0.59,0 -0.88,-0.01 -9.01,-0.39 -17.96,-0.92 -26.89,-1.53 -4.24,-0.3 -8.48,-0.62 -12.69,-0.96 -8.06,-0.65 -16.09,-1.39 -24.07,-2.24 -5.35,-0.56 -10.67,-1.19 -15.97,-1.84 -5.76,-0.7 -11.51,-1.44 -17.22,-2.24 -6.23,-0.86 -12.43,-1.78 -18.6,-2.76 -6.55,-1.04 -13.07,-2.13 -19.55,-3.29 -5,-0.9 -9.99,-1.82 -14.95,-2.8 -7.05,-1.38 -14.05,-2.83 -21.01,-4.35 -5.5,-1.21 -10.96,-2.47 -16.41,-3.77 -5.24,-1.25 -10.47,-2.54 -15.67,-3.87 -6.01,-1.54 -12,-3.12 -17.94,-4.77 -6.17,-1.71 -12.31,-3.47 -18.39,-5.29 -4.26,-1.28 -8.51,-2.57 -12.73,-3.9 -7.81,-2.47 -15.56,-5.02 -23.23,-7.67 -3.74,-1.29 -7.42,-2.64 -11.12,-3.97 -6.23,-2.25 -12.41,-4.57 -18.55,-6.94 -3.96,-1.54 -7.91,-3.07 -11.84,-4.67 -6.89,-2.78 -13.7,-5.64 -20.45,-8.58 -3.14,-1.37 -6.28,-2.73 -9.39,-4.13 -7.79,-3.5 -15.48,-7.09 -23.09,-10.8 -2.8,-1.36 -5.57,-2.76 -8.34,-4.16 -7.02,-3.52 -13.97,-7.11 -20.82,-10.81 -2.46,-1.32 -4.9,-2.66 -7.33,-4.01 -6.7,-3.7 -13.29,-7.5 -19.8,-11.36 -2.47,-1.46 -4.97,-2.92 -7.41,-4.41 -7.12,-4.33 -14.12,-8.77 -21.02,-13.29 -2.58,-1.68 -5.1,-3.39 -7.65,-5.11 -6.29,-4.23 -12.51,-8.54 -18.6,-12.94 -1.04,-0.74 -2.12,-1.44 -3.14,-2.18 -35.05,-25.56 -66.715,-53.77 -94.461,-84.19 l -14.695,-16.02 0.465,-0.19 c -70.867,-83.92 -112.309,-183.39 -112.309,-290.4 0,-110.28 43.977,-212.56 118.828,-298.04 l -0.425,-0.16 10.691,-11.26 c 27.125,-29.34 57.936,-56.57 91.906,-81.34 1.8,-1.32 3.7,-2.54 5.52,-3.85 5.12,-3.65 10.31,-7.27 15.59,-10.84 2.68,-1.79 5.35,-3.63 8.07,-5.42 6.97,-4.57 14.05,-9.05 21.25,-13.42 2.42,-1.48 4.89,-2.91 7.33,-4.38 6.57,-3.9 13.22,-7.71 19.97,-11.44 1.63,-0.9 3.22,-1.83 4.86,-2.72 8.01,-4.37 16.18,-8.57 24.43,-12.68 2.35,-1.18 4.7,-2.36 7.07,-3.51 8.36,-4.07 16.82,-8.05 25.4,-11.88 1.73,-0.78 3.49,-1.5 5.23,-2.27 7.8,-3.41 15.69,-6.73 23.68,-9.94 1.92,-0.77 3.8,-1.57 5.72,-2.32 8.97,-3.53 18.05,-6.91 27.23,-10.17 2.31,-0.84 4.64,-1.63 6.98,-2.44 9.44,-3.29 18.94,-6.46 28.58,-9.44 0.82,-0.24 1.65,-0.48 2.45,-0.73 9.14,-2.78 18.37,-5.43 27.67,-7.95 2.4,-0.65 4.78,-1.32 7.17,-1.96 9.65,-2.54 19.38,-4.94 29.2,-7.2 2.29,-0.54 4.6,-1.02 6.91,-1.53 9.01,-1.99 18.08,-3.89 27.23,-5.64 1.65,-0.32 3.27,-0.67 4.93,-0.96 10.13,-1.9 20.36,-3.6 30.64,-5.18 2.68,-0.41 5.37,-0.81 8.07,-1.2 10.31,-1.5 20.67,-2.86 31.14,-4.05 1.82,-0.21 3.67,-0.37 5.5,-0.57 9.52,-1.04 19.1,-1.91 28.73,-2.66 2.29,-0.19 4.56,-0.39 6.84,-0.54 10.69,-0.79 21.44,-1.37 32.25,-1.81 2.48,-0.09 4.98,-0.17 7.47,-0.24 11.27,-0.39 22.59,-0.63 33.98,-0.65 h 0.07 c 0.01,0 0.02,0 0.04,0 11.43,0.02 22.77,0.26 34.08,0.65 2.35,0.07 4.69,0.13 7.03,0.23 10.9,0.43 21.76,1.03 32.52,1.82 2.15,0.13 4.27,0.32 6.41,0.48 10.18,0.81 20.3,1.73 30.37,2.83 1.22,0.14 2.46,0.24 3.67,0.38 10.78,1.2 21.47,2.62 32.09,4.18 2.31,0.34 4.61,0.66 6.93,1.03 10.52,1.6 21,3.34 31.35,5.28 1.51,0.27 2.98,0.58 4.48,0.88 9.76,1.85 19.46,3.87 29.06,6.01 1.52,0.33 3.06,0.66 4.57,1.02 10.24,2.32 20.39,4.84 30.45,7.51 1.96,0.51 3.9,1.04 5.87,1.57 10.22,2.77 20.36,5.66 30.36,8.74 0.46,0.15 0.92,0.3 1.38,0.44 9.79,3.04 19.46,6.25 29.05,9.58 1.54,0.55 3.1,1.06 4.65,1.61 9.61,3.42 19.11,6.97 28.49,10.66 1.6,0.63 3.19,1.27 4.79,1.92 9.55,3.83 19,7.75 28.3,11.87 0.04,0.02 0.08,0.04 0.13,0.06 9.24,4.1 18.33,8.4 27.31,12.78 1.74,0.85 3.46,1.69 5.19,2.55 8.6,4.28 17.11,8.68 25.45,13.22 1.57,0.85 3.11,1.72 4.66,2.58 7.53,4.14 14.96,8.4 22.28,12.78 1.32,0.78 2.67,1.54 3.99,2.34 7.71,4.69 15.27,9.49 22.73,14.38 2.21,1.45 4.42,2.93 6.62,4.39 7.13,4.8 14.18,9.67 21.05,14.64 0.55,0.41 1.14,0.79 1.68,1.18 30.76,22.42 58.91,46.9 84.08,73.11 l 15.43,15.97 -0.44,0.2" /><path
         id="path24"
         style="fill:#468fd3;fill-opacity:1;fill-rule:nonzero;stroke:none"
         d="m 2086.96,2193.1 c -2.16,80.12 -20.14,156.01 -50.92,224.09 55.16,11.59 102.63,25.26 140.33,40.61 68.89,-77.1 109.87,-167.73 113.96,-264.7 h -203.37" /><path
         id="path26"
         style="fill:#468fd3;fill-opacity:1;fill-rule:nonzero;stroke:none"
         d="M 1553.3,2375.54 V 2193.1 h -186.53 c 0.83,66.63 6.8,130.16 17.04,188.2 54.12,-3.46 110.9,-5.42 169.49,-5.76" /><path
         id="path28"
         style="fill:#468fd3;fill-opacity:1;fill-rule:nonzero;stroke:none"
         d="m 1553.3,2161.03 v -193.12 c -57.89,-0.33 -114,-2.25 -167.54,-5.63 -11.48,60.88 -18.29,128.07 -19.06,198.75 h 186.6" /><path
         id="path30"
         style="fill:#468fd3;fill-opacity:1;fill-rule:nonzero;stroke:none"
         d="m 1585.35,1967.91 v 193.12 h 197.21 c -0.87,-70.98 -7.65,-138.39 -19.14,-199.45 -56.71,3.8 -116.37,5.97 -178.07,6.33" /><path
         id="path32"
         style="fill:#468fd3;fill-opacity:1;fill-rule:nonzero;stroke:none"
         d="m 1585.35,2193.1 v 182.44 c 62.41,0.37 122.75,2.58 180.03,6.46 10.39,-58.25 16.52,-122 17.25,-188.9 h -197.28" /><path
         id="path34"
         style="fill:#468fd3;fill-opacity:1;fill-rule:nonzero;stroke:none"
         d="m 1351.68,2383.56 c -10.17,-59.07 -16.06,-123.21 -16.99,-190.46 h -240.24 c 2.19,77.5 20.1,150.63 50.44,215.88 61.74,-11.05 131.44,-19.69 206.79,-25.42" /><path
         id="path36"
         style="fill:#468fd3;fill-opacity:1;fill-rule:nonzero;stroke:none"
         d="m 1334.7,2161.03 c 0.89,-71.24 7.49,-139.04 18.87,-201 -74.18,-5.59 -142.9,-14 -203.99,-24.74 -33.18,67.71 -52.83,144.32 -55.13,225.74 h 240.25" /><path
         id="path38"
         style="fill:#468fd3;fill-opacity:1;fill-rule:nonzero;stroke:none"
         d="m 1795.66,1959.22 c 11.41,62.16 18,130.24 18.97,201.81 h 240.26 c -2.33,-82.11 -22.27,-159.34 -55.97,-227.47 -60.63,11.06 -129.15,19.76 -203.26,25.66" /><path
         id="path40"
         style="fill:#468fd3;fill-opacity:1;fill-rule:nonzero;stroke:none"
         d="m 1814.62,2193.1 c -0.83,67.54 -6.78,131.99 -17.1,191.29 75.32,6.05 144.79,15 206.08,26.38 30.84,-65.7 49.08,-139.46 51.29,-217.67 h -240.27" /><path
         id="path42"
         style="fill:#468fd3;fill-opacity:1;fill-rule:nonzero;stroke:none"
         d="m 1112.34,2415.18 c -30.24,-67.55 -47.83,-142.76 -49.96,-222.08 H 859.008 c 4.023,95.64 43.93,185.14 111.113,261.55 38.629,-14.95 86.699,-28.24 142.219,-39.47" /><path
         id="path44"
         style="fill:#468fd3;fill-opacity:1;fill-rule:nonzero;stroke:none"
         d="m 1062.38,2161.03 c 2.23,-83.19 21.62,-161.78 54.6,-231.84 -54.07,-10.75 -101.23,-23.45 -139.656,-37.68 -71.511,78.11 -114.148,170.52 -118.316,269.52 h 203.372" /><path
         id="path46"
         style="fill:#468fd3;fill-opacity:1;fill-rule:nonzero;stroke:none"
         d="m 2031.42,1927.24 c 33.55,70.55 53.27,149.83 55.54,233.79 h 203.37 c -4.23,-100.27 -47.88,-193.77 -121.06,-272.52 -37.57,14.62 -84.13,27.64 -137.85,38.73" /><path
         id="path48"
         style="fill:#fbbd0d;fill-opacity:1;fill-rule:nonzero;stroke:none"
         d="m 580.133,3187.32 v -418.46 h -92.024 v 418.46 h 92.024" /><path
         id="path50"
         style="fill:#fbbd0d;fill-opacity:1;fill-rule:nonzero;stroke:none"
         d="m 723.707,2859.12 v -90.26 h -92.023 v 90.26 h 92.023" /><path
         id="path52"
         style="fill:#fbbd0d;fill-opacity:1;fill-rule:nonzero;stroke:none"
         d="m 1043.07,2990.4 c 10.54,0 20.69,0.78 30.47,2.35 9.76,1.55 18.35,4.59 25.78,9.08 7.42,4.49 13.38,10.85 17.88,19.05 4.48,8.2 6.74,18.94 6.74,32.23 0,13.28 -2.26,24.03 -6.74,32.24 -4.5,8.2 -10.46,14.55 -17.88,19.04 -7.43,4.49 -16.02,7.52 -25.78,9.09 -9.78,1.56 -19.93,2.34 -30.47,2.34 H 971.555 V 2990.4 Z m 25.19,196.92 c 26.17,0 48.45,-3.8 66.81,-11.42 18.36,-7.62 33.31,-17.69 44.84,-30.19 11.52,-12.51 19.92,-26.76 25.2,-42.78 5.28,-16.02 7.92,-32.63 7.92,-49.82 0,-16.8 -2.64,-33.31 -7.92,-49.52 -5.28,-16.21 -13.68,-30.57 -25.2,-43.07 -11.53,-12.52 -26.48,-22.57 -44.84,-30.19 -18.36,-7.62 -40.64,-11.43 -66.81,-11.43 h -96.705 v -150.04 h -92.004 v 418.46 h 188.709" /><path
         id="path54"
         style="fill:#fbbd0d;fill-opacity:1;fill-rule:nonzero;stroke:none"
         d="m 1208.21,2859.12 v -90.26 h -92.02 v 90.26 h 92.02" /><path
         id="path56"
         style="fill:#fbbd0d;fill-opacity:1;fill-rule:nonzero;stroke:none"
         d="m 1955.36,2872.01 c 5.07,-9.77 11.82,-17.68 20.23,-23.73 8.39,-6.06 18.25,-10.55 29.59,-13.48 11.33,-2.93 23.06,-4.39 35.17,-4.39 8.21,0 16.99,0.67 26.37,2.05 9.38,1.36 18.17,4 26.37,7.9 8.2,3.91 15.04,9.29 20.51,16.12 5.48,6.84 8.2,15.53 8.2,26.09 0,11.32 -3.61,20.5 -10.83,27.54 -7.23,7.03 -16.7,12.89 -28.43,17.58 -11.71,4.69 -25.01,8.79 -39.86,12.31 -14.84,3.52 -29.88,7.42 -45.12,11.73 -15.63,3.89 -30.86,8.68 -45.71,14.35 -14.85,5.66 -28.13,12.98 -39.85,21.98 -11.72,8.98 -21.2,20.22 -28.43,33.7 -7.24,13.48 -10.84,29.79 -10.84,48.94 0,21.48 4.58,40.14 13.77,55.97 9.18,15.82 21.2,29.01 36.04,39.56 14.85,10.54 31.64,18.36 50.4,23.44 18.76,5.07 37.51,7.62 56.26,7.62 21.9,0 42.88,-2.45 63.02,-7.32 20.11,-4.9 38,-12.81 53.62,-23.74 15.62,-10.94 28.03,-24.91 37.21,-41.91 9.18,-17 13.79,-37.61 13.79,-61.83 h -89.09 c -0.79,12.5 -3.43,22.86 -7.92,31.06 -4.49,8.21 -10.45,14.65 -17.87,19.35 -7.42,4.69 -15.93,8 -25.49,9.96 -9.59,1.95 -20.03,2.93 -31.37,2.93 -7.42,0 -14.85,-0.79 -22.26,-2.34 -7.42,-1.57 -14.17,-4.31 -20.22,-8.21 -6.06,-3.92 -11.05,-8.79 -14.96,-14.65 -3.91,-5.87 -5.85,-13.29 -5.85,-22.28 0,-8.2 1.55,-14.85 4.7,-19.92 3.11,-5.09 9.27,-9.78 18.46,-14.07 9.18,-4.3 21.87,-8.6 38.08,-12.89 16.21,-4.3 37.42,-9.77 63.6,-16.41 7.81,-1.57 18.65,-4.4 32.53,-8.5 13.86,-4.1 27.62,-10.65 41.31,-19.63 13.68,-9 25.49,-21.01 35.45,-36.05 9.97,-15.04 14.96,-34.28 14.96,-57.72 0,-19.16 -3.72,-36.93 -11.14,-53.34 -7.43,-16.41 -18.47,-30.57 -33.11,-42.49 -14.65,-11.93 -32.82,-21.2 -54.52,-27.84 -21.68,-6.64 -46.78,-9.96 -75.3,-9.96 -23.06,0 -45.42,2.84 -67.12,8.5 -21.68,5.65 -40.82,14.55 -57.42,26.66 -16.61,12.11 -29.8,27.55 -39.56,46.3 -9.78,18.76 -14.46,41.03 -14.07,66.82 h 89.09 c 0,-14.07 2.53,-25.99 7.61,-35.76" /><path
         id="path58"
         style="fill:#fbbd0d;fill-opacity:1;fill-rule:nonzero;stroke:none"
         d="m 2332.04,2859.12 v -90.26 H 2240 v 90.26 h 92.04" /><path
         id="path60"
         style="fill:#fbbd0d;fill-opacity:1;fill-rule:nonzero;stroke:none"
         d="m 2632.56,3075.68 c -5.48,8.79 -12.31,16.5 -20.51,23.15 -8.21,6.63 -17.49,11.81 -27.85,15.53 -10.35,3.71 -21.2,5.57 -32.52,5.57 -20.72,0 -38.3,-4.02 -52.75,-12.02 -14.45,-8.01 -26.17,-18.75 -35.16,-32.23 -9,-13.48 -15.53,-28.82 -19.63,-46.01 -4.11,-17.2 -6.16,-34.97 -6.16,-53.33 0,-17.58 2.05,-34.68 6.16,-51.29 4.1,-16.6 10.63,-31.55 19.63,-44.83 8.99,-13.29 20.71,-23.94 35.16,-31.94 14.45,-8.01 32.03,-12.02 52.75,-12.02 28.13,0 50.11,8.6 65.94,25.79 15.82,17.19 25.49,39.86 29.01,67.99 h 89.08 c -2.35,-26.18 -8.4,-49.82 -18.17,-70.92 -9.77,-21.1 -22.67,-39.07 -38.68,-53.92 -16.02,-14.85 -34.77,-26.18 -56.26,-33.99 -21.5,-7.81 -45.13,-11.72 -70.92,-11.72 -32.05,0 -60.85,5.57 -86.45,16.7 -25.6,11.14 -47.18,26.47 -64.76,46.01 -17.58,19.53 -31.06,42.49 -40.45,68.87 -9.37,26.36 -14.06,54.79 -14.06,85.27 0,31.25 4.69,60.26 14.06,87.03 9.39,26.76 22.87,50.11 40.45,70.04 17.58,19.92 39.16,35.55 64.76,46.89 25.6,11.32 54.4,16.99 86.45,16.99 23.05,0 44.83,-3.33 65.36,-9.97 20.5,-6.64 38.86,-16.31 55.07,-29 16.22,-12.7 29.61,-28.43 40.16,-47.19 10.55,-18.75 17.19,-40.24 19.92,-64.46 h -89.08 c -1.56,10.54 -5.09,20.22 -10.55,29.01" /><path
         id="path62"
         style="fill:#fbbd0d;fill-opacity:1;fill-rule:nonzero;stroke:none"
         d="m 2849.09,2859.12 v -90.26 h -92.01 v 90.26 h 92.01" /><path
         id="path64"
         style="fill:#fbbd0d;fill-opacity:1;fill-rule:nonzero;stroke:none"
         d="m 1660.08,689.449 c -5.34,10.692 -9.7,22.27 -12.85,35.02 -4.94,20.09 -7.41,41.371 -7.41,63.851 0,20.629 2.47,40.532 7.41,59.711 4.94,19.137 12.62,36.188 23.03,51.129 10.41,14.918 23.65,26.801 39.71,35.649 16.05,8.839 35.39,13.269 57.96,13.269 3.59,0 7.09,-0.156 10.53,-0.398 z m -219.17,-33.777 c -9.36,-6.641 -18.79,-11.723 -28.32,-15.211 -9.54,-3.512 -18.53,-5.711 -27.01,-6.641 -8.47,-0.929 -15.53,-1.379 -21.16,-1.379 h -83.65 v 306.227 h 33 L 1442.83,657.18 c -0.65,-0.489 -1.26,-1.051 -1.92,-1.508 z m -75.45,282.996 c 23.3,0 42.89,-3.406 58.77,-10.219 15.89,-6.828 28.86,-16.769 38.91,-29.847 10.06,-13.071 17.29,-28.934 21.71,-47.532 4.41,-18.621 6.62,-39.718 6.62,-63.289 0,-24.34 -2.38,-45.062 -7.15,-62.191 -2.73,-9.852 -5.96,-18.649 -9.56,-26.602 l -109.91,239.68 z m 615.35,153.152 v 46.44 h -197.94 v -46.44 h 61.69 l -46.64,-101.699 c -9.56,1.43 -19.36,2.168 -29.46,2.168 -28.93,0 -54.61,-5.43 -77.01,-16.289 -22.42,-10.879 -41.12,-25.719 -56.12,-44.512 -15.01,-18.789 -26.4,-40.816 -34.15,-66.058 -7.77,-25.239 -11.64,-52.239 -11.64,-80.981 0,-28.75 3.61,-55.648 10.85,-80.699 7.23,-25.059 18.07,-46.809 32.54,-65.23 0.79,-0.989 1.7,-1.848 2.5,-2.821 l -65.84,-143.59 -69.71,152.051 c 14,17.149 24.49,37.949 31.3,62.629 7.06,25.609 10.58,54.992 10.58,88.172 0,63.367 -15.71,110.551 -47.12,141.508 -31.41,30.941 -76.23,46.422 -134.46,46.422 h -15.6 l -49.94,108.929 h 61.7 v 46.44 H 1158.4 v -46.44 h 85.16 l 49.94,-108.929 h -63.03 V 588.219 h 129.71 c 31.41,0 58.57,4.59 81.52,13.82 7.67,3.07 14.71,6.789 21.47,10.789 l 80.65,-175.906 h 51.56 l 76.46,166.777 c 4.98,-3.09 10.19,-5.961 15.63,-8.558 21.88,-10.512 47.46,-15.762 76.75,-15.762 48.36,0 86.49,13.812 114.36,41.441 27.89,27.66 44.3,66.348 49.24,116.102 h -50.3 c -1.05,-16.231 -4.23,-31.332 -9.53,-45.344 -5.29,-14 -12.61,-26.066 -21.96,-36.207 -9.36,-10.109 -20.48,-18.039 -33.35,-23.762 -12.89,-5.711 -27.63,-8.558 -44.22,-8.558 -22.59,0 -41.99,4.41 -58.22,13.258 -6.47,3.523 -12.34,7.66 -17.87,12.152 l 131.35,286.5 c 4.41,-2.332 8.69,-4.922 12.77,-7.891 19.24,-14.011 31.68,-35.019 37.33,-63.011 h 50.3 c -2.84,20.992 -8.83,39.523 -18,55.543 -9.19,16.039 -20.65,29.386 -34.42,40.078 -8.77,6.808 -18.42,12.461 -28.77,17.179 l 52.71,114.961 h 85.17" /><path
         id="path66"
         style="fill:#468fd3;fill-opacity:1;fill-rule:nonzero;stroke:none"
         d="m 1819.38,1689.92 c 1.28,0.34 2.58,0.65 3.85,0.99 9.18,2.46 18.22,5.11 27.21,7.82 2.49,0.77 4.99,1.51 7.46,2.29 8.57,2.68 17.07,5.49 25.44,8.4 0.14,0.03 0.26,0.09 0.38,0.13 -5.57,1.39 -11.25,2.75 -17.19,4.05 -3.9,0.85 -7.92,1.68 -11.97,2.51 -14.95,-10.43 -30.39,-20.15 -46.35,-28.96 3.71,0.94 7.48,1.8 11.17,2.77" /><path
         id="path68"
         style="fill:#468fd3;fill-opacity:1;fill-rule:nonzero;stroke:none"
         d="m 2016.27,1897.58 c -21.95,-39.91 -48.37,-76.66 -78.69,-109.28 -17.87,-19.23 -37.14,-36.97 -57.53,-53.2 15.13,-3.5 29.05,-7.25 41.77,-11.25 0.12,0.05 0.24,0.1 0.35,0.14 6.95,2.81 13.82,5.68 20.63,8.65 2.46,1.07 4.94,2.13 7.38,3.22 7.67,3.42 15.22,6.97 22.68,10.6 2.65,1.3 5.32,2.6 7.97,3.94 7.4,3.69 14.72,7.48 21.93,11.38 2.23,1.21 4.39,2.44 6.6,3.67 6.39,3.54 12.72,7.15 18.93,10.86 1.66,0.99 3.36,1.93 5,2.93 7.24,4.37 14.32,8.91 21.3,13.48 1.96,1.29 3.9,2.55 5.83,3.82 6.98,4.69 13.83,9.46 20.55,14.32 2.9,2.09 5.76,4.21 8.61,6.34 1.23,0.93 2.48,1.84 3.7,2.77 3.64,2.77 7.23,5.59 10.79,8.41 0.73,0.58 1.47,1.13 2.2,1.72 4.16,3.35 8.27,6.75 12.32,10.18 1.27,1.06 2.5,2.14 3.75,3.22 2.82,2.42 5.64,4.87 8.41,7.34 1.38,1.23 2.75,2.48 4.12,3.73 2.66,2.42 5.31,4.87 7.93,7.33 0.58,0.56 1.17,1.13 1.76,1.69 -35.16,12.62 -78.51,24.09 -128.29,33.99" /><path
         id="path70"
         style="fill:#468fd3;fill-opacity:1;fill-rule:nonzero;stroke:none"
         d="m 1266.05,1737.74 c -19.19,15.5 -37.38,32.36 -54.29,50.56 -30.8,33.15 -57.56,70.53 -79.71,111.15 -50.16,-9.6 -94.1,-20.79 -130.14,-33.16 0.13,-0.11 0.25,-0.23 0.36,-0.34 3.65,-3.53 7.37,-7 11.15,-10.44 0.7,-0.65 1.4,-1.27 2.11,-1.91 3.38,-3.05 6.81,-6.1 10.29,-9.09 0.77,-0.66 1.54,-1.34 2.33,-2.01 3.8,-3.26 7.65,-6.46 11.55,-9.65 0.35,-0.27 0.71,-0.57 1.06,-0.86 8.81,-7.13 17.88,-14.09 27.21,-20.87 6.38,-4.63 12.91,-9.14 19.53,-13.58 2.41,-1.63 4.83,-3.26 7.28,-4.86 6.51,-4.26 13.12,-8.45 19.84,-12.55 2.52,-1.52 5.07,-3.01 7.62,-4.5 5.72,-3.4 11.51,-6.74 17.4,-10 2.84,-1.59 5.69,-3.17 8.57,-4.71 6.37,-3.42 12.83,-6.76 19.35,-10.04 2.78,-1.39 5.57,-2.79 8.38,-4.16 7.32,-3.57 14.72,-7.05 22.23,-10.41 2.76,-1.23 5.55,-2.44 8.33,-3.66 4.88,-2.13 9.84,-4.15 14.79,-6.2 12.77,3.77 26.65,7.32 41.62,10.62 1.03,0.24 2.1,0.45 3.14,0.67" /><path
         id="path72"
         style="fill:#468fd3;fill-opacity:1;fill-rule:nonzero;stroke:none"
         d="m 1290.99,1701.16 c 2.48,-0.78 4.97,-1.53 7.46,-2.29 9.02,-2.74 18.09,-5.37 27.3,-7.85 1.56,-0.42 3.16,-0.81 4.74,-1.23 3.51,-0.93 7.09,-1.74 10.63,-2.64 -17.13,9.44 -33.68,19.9 -49.63,31.23 -11.17,-2.07 -21.89,-4.3 -31.98,-6.66 1.91,-0.69 3.81,-1.4 5.73,-2.05 8.49,-2.97 17.08,-5.8 25.75,-8.51" /><path
         id="path74"
         style="fill:#468fd3;fill-opacity:1;fill-rule:nonzero;stroke:none"
         d="m 1553.3,1661.73 v 79.11 c -30.13,-0.22 -59.46,-1.13 -87.68,-2.66 10.56,-16.51 21.66,-30.7 33.19,-42.18 17.96,-18.05 36.17,-29.32 54.49,-34.27" /><path
         id="path76"
         style="fill:#468fd3;fill-opacity:1;fill-rule:nonzero;stroke:none"
         d="m 1553.3,1935.87 c -55.57,-0.28 -109.51,-2.11 -161.05,-5.29 14.86,-66.59 35.43,-124.35 59.65,-169.11 32.44,1.99 66.38,3.16 101.4,3.41 v 170.99" /><path
         id="path78"
         style="fill:#468fd3;fill-opacity:1;fill-rule:nonzero;stroke:none"
         d="m 1718.34,1805.41 c 15.24,36.31 28.3,78.29 38.6,124.49 -54.72,3.6 -112.23,5.67 -171.59,5.96 v -171 c 38.68,-0.36 76.06,-1.83 111.47,-4.3 7.54,13.78 14.77,28.71 21.52,44.85" /><path
         id="path80"
         style="fill:#468fd3;fill-opacity:1;fill-rule:nonzero;stroke:none"
         d="m 1650.5,1696 c 11.21,11.27 22.1,25.21 32.51,41.35 -31.23,1.95 -63.92,3.14 -97.66,3.43 v -81.26 c 21.93,2.94 43.72,14.92 65.15,36.48" /><path
         id="path82"
         style="fill:#468fd3;fill-opacity:1;fill-rule:nonzero;stroke:none"
         d="m 1476.05,1673.42 c -16.81,16.99 -32.26,38.05 -46.38,62.42 -32.59,-2.48 -63.35,-5.78 -91.72,-9.81 43.93,-26.87 92.09,-46.54 143.19,-57.4 -1.69,1.61 -3.43,3.11 -5.09,4.79" /><path
         id="path84"
         style="fill:#468fd3;fill-opacity:1;fill-rule:nonzero;stroke:none"
         d="m 1401.41,1793.03 c -16.66,39.79 -30.64,85.43 -41.49,135.36 -70.65,-5.25 -136.21,-13.08 -194.58,-22.94 19.84,-34.7 43.31,-66.7 69.91,-95.31 22.28,-23.97 46.75,-45.49 72.98,-64.38 33.01,5.51 69.6,9.98 108.86,13.23 -5.44,10.82 -10.68,22.15 -15.68,34.04" /><path
         id="path86"
         style="fill:#468fd3;fill-opacity:1;fill-rule:nonzero;stroke:none"
         d="m 1668.19,1668.63 c 49.98,10.63 97.15,29.69 140.29,55.64 -27.56,4.21 -57.58,7.73 -89.49,10.44 -14.01,-23.92 -29.3,-44.55 -45.7,-61.29 -1.66,-1.68 -3.4,-3.18 -5.1,-4.79" /><path
         id="path88"
         style="fill:#468fd3;fill-opacity:1;fill-rule:nonzero;stroke:none"
         d="m 1914.09,1810.14 c 26.16,28.16 49.27,59.61 68.91,93.65 -57.88,10.14 -123.17,18.25 -193.68,23.79 -14.13,-65.08 -33.75,-122.66 -57.77,-169.8 38.66,-3.54 74.51,-8.31 106.68,-14.07 27.31,19.38 52.75,41.6 75.86,66.43" /><path
         id="path90"
         style="fill:#468fd3;fill-opacity:1;fill-rule:nonzero;stroke:none"
         d="m 1331.17,2664.51 c -10.89,-2.85 -21.65,-5.9 -32.28,-9.12 -0.91,-0.28 -1.85,-0.52 -2.77,-0.8 -10.35,-3.17 -20.51,-6.6 -30.62,-10.11 0.88,-0.2 1.71,-0.41 2.59,-0.6 8.67,-1.92 17.79,-3.74 27.23,-5.48 14.77,10.29 30.01,19.89 45.77,28.56 -3.3,-0.83 -6.65,-1.59 -9.92,-2.45" /><path
         id="path92"
         style="fill:#468fd3;fill-opacity:1;fill-rule:nonzero;stroke:none"
         d="m 1219.4,2626.89 c -8.21,-3.41 -16.35,-6.89 -24.35,-10.53 -3.13,-1.42 -6.2,-2.89 -9.3,-4.35 -7.43,-3.49 -14.79,-7.07 -22.03,-10.75 -3.19,-1.62 -6.36,-3.27 -9.5,-4.93 -7.05,-3.71 -13.98,-7.52 -20.82,-11.4 -3.06,-1.74 -6.12,-3.47 -9.15,-5.25 -6.87,-4.03 -13.61,-8.19 -20.27,-12.4 -2.75,-1.75 -5.54,-3.46 -8.25,-5.23 -7.07,-4.61 -13.95,-9.35 -20.76,-14.16 -2.11,-1.49 -4.3,-2.93 -6.39,-4.45 -17.68,-12.79 -34.43,-26.25 -50.18,-40.29 -0.72,-0.65 -1.43,-1.31 -2.15,-1.96 -7.33,-6.6 -14.42,-13.32 -21.289,-20.17 -0.359,-0.35 -0.715,-0.72 -1.074,-1.08 36.253,-13.04 81.213,-24.84 132.983,-34.95 23.09,44.39 51.66,85.08 84.89,120.84 17.89,19.26 37.18,37.03 57.6,53.27 -15.56,3.31 -30.01,6.82 -43.32,10.58 -2.22,-0.92 -4.42,-1.86 -6.64,-2.79" /><path
         id="path94"
         style="fill:#468fd3;fill-opacity:1;fill-rule:nonzero;stroke:none"
         d="m 1857.26,2653.33 c -1.96,0.6 -3.92,1.19 -5.87,1.78 -10.15,3.1 -20.43,6.05 -30.82,8.81 -4.06,1.08 -8.23,2.02 -12.34,3.04 14.67,-8.06 28.85,-16.94 42.65,-26.4 9.44,1.85 18.44,3.83 27.04,5.89 -6.86,2.33 -13.69,4.7 -20.66,6.88" /><path
         id="path96"
         style="fill:#468fd3;fill-opacity:1;fill-rule:nonzero;stroke:none"
         d="m 1937.58,2565.83 c 32.74,-35.23 60.94,-75.27 83.85,-118.91 51.43,10.44 95.8,22.56 131.12,35.91 -0.24,0.25 -0.49,0.51 -0.75,0.76 -7.05,6.94 -14.34,13.76 -21.85,20.44 -0.46,0.41 -0.92,0.82 -1.37,1.23 -7.62,6.71 -15.47,13.29 -23.54,19.73 -0.84,0.67 -1.68,1.33 -2.53,1.98 -7.33,5.8 -14.87,11.46 -22.54,17.01 -3.21,2.31 -6.53,4.54 -9.79,6.8 -5.61,3.91 -11.27,7.8 -17.07,11.58 -3.39,2.21 -6.86,4.36 -10.32,6.53 -5.85,3.67 -11.77,7.3 -17.79,10.83 -3.58,2.11 -7.2,4.17 -10.84,6.22 -6.11,3.45 -12.28,6.82 -18.54,10.13 -3.74,1.96 -7.47,3.92 -11.26,5.84 -6.39,3.23 -12.85,6.36 -19.38,9.45 -3.83,1.81 -7.65,3.64 -11.54,5.39 -6.73,3.06 -13.58,5.98 -20.47,8.87 -3.82,1.61 -7.61,3.26 -11.48,4.82 -1.49,0.59 -3.03,1.13 -4.53,1.72 -12.27,-3.75 -25.66,-7.27 -40.06,-10.56 21.58,-16.9 41.88,-35.54 60.68,-55.77" /><path
         id="path98"
         style="fill:#468fd3;fill-opacity:1;fill-rule:nonzero;stroke:none"
         d="m 1498.81,2658.14 c -10.63,-10.71 -20.99,-23.86 -30.92,-38.94 27.52,-1.46 56.08,-2.33 85.41,-2.54 v 75.75 c -18.32,-4.95 -36.53,-16.22 -54.49,-34.27" /><path
         id="path100"
         style="fill:#468fd3;fill-opacity:1;fill-rule:nonzero;stroke:none"
         d="m 1430.99,2548.72 c -16.46,-39.21 -30.36,-85.08 -41.01,-135.72 52.23,-3.27 106.95,-5.14 163.32,-5.42 v 185.01 c -34.34,0.25 -67.68,1.37 -99.55,3.3 -8,-14.39 -15.63,-30.13 -22.76,-47.17" /><path
         id="path102"
         style="fill:#468fd3;fill-opacity:1;fill-rule:nonzero;stroke:none"
         d="m 1585.35,2407.58 c 60.18,0.29 118.45,2.41 173.85,6.11 -15.46,72.88 -37.71,135.61 -64.13,183.1 -34.89,-2.39 -71.67,-3.81 -109.72,-4.17 v -185.04" /><path
         id="path104"
         style="fill:#468fd3;fill-opacity:1;fill-rule:nonzero;stroke:none"
         d="m 1585.81,2694.53 c -0.16,0 -0.31,0.01 -0.46,0.01 v -77.87 c 33.02,0.3 65.07,1.45 95.69,3.32 -9.75,14.77 -19.96,27.63 -30.54,38.15 -21.29,21.4 -42.91,33.34 -64.69,36.39" /><path
         id="path106"
         style="fill:#468fd3;fill-opacity:1;fill-rule:nonzero;stroke:none"
         d="m 1747.92,2561.11 c 17.75,-42.36 32.48,-91.32 43.59,-145.08 71.89,5.71 138.3,14.12 196.93,24.6 -20.75,37.8 -45.72,72.56 -74.35,103.38 -24.16,25.97 -50.86,49.14 -79.61,69.1 -31.65,-5.54 -66.76,-10.12 -104.53,-13.53 6.28,-12.15 12.28,-24.94 17.97,-38.47" /><path
         id="path108"
         style="fill:#468fd3;fill-opacity:1;fill-rule:nonzero;stroke:none"
         d="m 1673.29,2680.72 c 15.82,-15.98 30.41,-35.58 43.84,-58.12 30.92,2.58 60.06,5.93 86.96,9.94 -41.96,24.61 -87.62,42.71 -135.9,52.97 1.7,-1.6 3.44,-3.11 5.1,-4.79" /><path
         id="path110"
         style="fill:#468fd3;fill-opacity:1;fill-rule:nonzero;stroke:none"
         d="m 1235.25,2544.01 c -29.07,-31.28 -54.36,-66.64 -75.29,-105.1 59.08,-10.18 125.73,-18.26 197.67,-23.67 14.46,70.65 35.31,132.9 61.18,183.11 -38.42,3.12 -74.28,7.44 -106.78,12.74 -27.67,-19.51 -53.43,-41.97 -76.78,-67.08" /><path
         id="path112"
         style="fill:#468fd3;fill-opacity:1;fill-rule:nonzero;stroke:none"
         d="m 1481.14,2685.51 c -49.37,-10.5 -95.99,-29.19 -138.71,-54.67 27.69,-3.83 57.57,-6.98 89.16,-9.33 13.68,23.03 28.53,42.96 44.46,59.21 1.66,1.68 3.4,3.19 5.09,4.79" /></g></g></svg>